<?xml version="1.0" encoding="iso-8859-1"?>
<!-- Generator: Adobe Illustrator 19.0.0, SVG Export Plug-In . SVG Version: 6.00 Build 0)  -->
<svg xmlns="http://www.w3.org/2000/svg" xmlns:xlink="http://www.w3.org/1999/xlink" version="1.1" id="Layer_1" x="0px" y="0px" viewBox="0 0 512.001 512.001" style="enable-background:new 0 0 512.001 512.001;" xml:space="preserve" width="512px" height="512px">
<g>
	<g>
		<path d="M510.992,196.91c-2.428-7.487-8.894-12.947-16.683-14.086l-151.857-22.196L274.547,23.059    c-3.484-7.059-10.674-11.528-18.546-11.528c-7.872,0-15.061,4.469-18.546,11.528L169.55,160.628L17.692,182.824    c-7.788,1.139-14.255,6.599-16.683,14.086c-2.428,7.487-0.395,15.703,5.243,21.195l109.867,107.009L90.19,476.291    c-1.331,7.761,1.86,15.603,8.229,20.23c6.369,4.626,14.813,5.236,21.782,1.572L256,426.677l135.799,71.415    c3.027,1.592,6.331,2.377,9.625,2.377c4.287,0,8.554-1.332,12.157-3.949c6.37-4.627,9.56-12.47,8.229-20.23l-25.928-151.177    l109.867-107.009C511.387,212.613,513.42,204.398,510.992,196.91z M359.229,303.073c-4.878,4.751-7.105,11.6-5.954,18.313    l20.682,120.588l-108.331-56.97c-3.014-1.585-6.32-2.377-9.627-2.377c-3.306,0-6.614,0.792-9.627,2.376l-108.33,56.97    l20.682-120.588c1.151-6.712-1.075-13.561-5.954-18.313l-87.656-85.376l121.163-17.709c6.729-0.984,12.544-5.213,15.554-11.311    L256,78.94l54.166,109.736c3.01,6.099,8.826,10.327,15.555,11.311l121.164,17.71L359.229,303.073z" fill="#921e2d"/>
	</g>
</g>
<g>
</g>
<g>
</g>
<g>
</g>
<g>
</g>
<g>
</g>
<g>
</g>
<g>
</g>
<g>
</g>
<g>
</g>
<g>
</g>
<g>
</g>
<g>
</g>
<g>
</g>
<g>
</g>
<g>
</g>
</svg>
